<mxfile host="app.diagrams.net" modified="2021-10-19T08:40:28.915Z" agent="5.0 (Windows NT 10.0; Win64; x64) AppleWebKit/537.36 (KHTML, like Gecko) Chrome/94.0.4606.81 Safari/537.36" etag="Omrxo12pDWMc_2BIg-6U" version="15.5.4" type="github">
  <diagram id="oPBc_4jDYfKRF5szmk1x" name="第 1 页">
    <mxGraphModel dx="1422" dy="761" grid="1" gridSize="10" guides="1" tooltips="1" connect="1" arrows="1" fold="1" page="1" pageScale="1" pageWidth="827" pageHeight="1169" math="0" shadow="0">
      <root>
        <mxCell id="0" />
        <mxCell id="1" parent="0" />
        <mxCell id="L1u2lZ3T-3ERHcfXlvra-1" value="群众" style="swimlane;" parent="1" vertex="1">
          <mxGeometry x="80" y="100" width="360" height="620" as="geometry">
            <mxRectangle x="80" y="100" width="60" height="23" as="alternateBounds" />
          </mxGeometry>
        </mxCell>
        <mxCell id="Mm4doNWPpXtPCiGbEJdF-1" value="&lt;font color=&quot;#000000&quot;&gt;点单&lt;/font&gt;" style="whiteSpace=wrap;html=1;fontColor=#FF8000;" vertex="1" parent="L1u2lZ3T-3ERHcfXlvra-1">
          <mxGeometry x="50" y="60" width="120" height="40" as="geometry" />
        </mxCell>
        <mxCell id="Mm4doNWPpXtPCiGbEJdF-7" value="&lt;ul&gt;&lt;li&gt;选择时间，编辑内容&lt;br&gt;(内容一般要包括联系人，地址)&lt;/li&gt;&lt;li&gt;实名用户才能点单&lt;/li&gt;&lt;/ul&gt;" style="text;strokeColor=none;fillColor=none;html=1;whiteSpace=wrap;verticalAlign=middle;overflow=hidden;fontColor=#000000;" vertex="1" parent="L1u2lZ3T-3ERHcfXlvra-1">
          <mxGeometry x="170" y="30" width="180" height="70" as="geometry" />
        </mxCell>
        <mxCell id="Mm4doNWPpXtPCiGbEJdF-19" value="&lt;font color=&quot;#000000&quot;&gt;用户评价&lt;/font&gt;" style="whiteSpace=wrap;html=1;fontColor=#FF8000;" vertex="1" parent="L1u2lZ3T-3ERHcfXlvra-1">
          <mxGeometry x="110" y="400" width="120" height="40" as="geometry" />
        </mxCell>
        <mxCell id="Mm4doNWPpXtPCiGbEJdF-33" value="点单列表" style="swimlane;fontColor=#000000;" vertex="1" collapsed="1" parent="L1u2lZ3T-3ERHcfXlvra-1">
          <mxGeometry x="60" y="170" width="80" height="23" as="geometry">
            <mxRectangle x="60" y="170" width="200" height="100" as="alternateBounds" />
          </mxGeometry>
        </mxCell>
        <mxCell id="Mm4doNWPpXtPCiGbEJdF-34" value="&lt;ul&gt;&lt;li&gt;支持搜索和筛选&lt;br&gt;&lt;/li&gt;&lt;li&gt;近30天的点单数是点单成功的数量&lt;/li&gt;&lt;/ul&gt;" style="text;strokeColor=none;fillColor=none;html=1;whiteSpace=wrap;verticalAlign=middle;overflow=hidden;fontColor=#000000;" vertex="1" parent="Mm4doNWPpXtPCiGbEJdF-33">
          <mxGeometry x="10" y="30" width="180" height="60" as="geometry" />
        </mxCell>
        <mxCell id="Mm4doNWPpXtPCiGbEJdF-36" value="点单详情" style="swimlane;fontColor=#000000;" vertex="1" collapsed="1" parent="L1u2lZ3T-3ERHcfXlvra-1">
          <mxGeometry x="60" y="220" width="80" height="23" as="geometry">
            <mxRectangle x="60" y="220" width="200" height="200" as="alternateBounds" />
          </mxGeometry>
        </mxCell>
        <mxCell id="Mm4doNWPpXtPCiGbEJdF-37" value="&lt;ul&gt;&lt;li&gt;点单详情分为服务详情和派单详情&lt;/li&gt;&lt;li&gt;派单详情可以查看点单的进度&lt;/li&gt;&lt;/ul&gt;" style="text;strokeColor=none;fillColor=none;html=1;whiteSpace=wrap;verticalAlign=middle;overflow=hidden;fontColor=#000000;" vertex="1" parent="Mm4doNWPpXtPCiGbEJdF-36">
          <mxGeometry y="30" width="180" height="70" as="geometry" />
        </mxCell>
        <mxCell id="L1u2lZ3T-3ERHcfXlvra-2" value="志愿团队" style="swimlane;" parent="1" vertex="1">
          <mxGeometry x="820" y="100" width="360" height="620" as="geometry">
            <mxRectangle x="820" y="100" width="80" height="23" as="alternateBounds" />
          </mxGeometry>
        </mxCell>
        <mxCell id="Mm4doNWPpXtPCiGbEJdF-18" value="" style="edgeStyle=orthogonalEdgeStyle;orthogonalLoop=1;jettySize=auto;html=1;fontColor=#000000;" edge="1" parent="L1u2lZ3T-3ERHcfXlvra-2" source="Mm4doNWPpXtPCiGbEJdF-9" target="Mm4doNWPpXtPCiGbEJdF-17">
          <mxGeometry relative="1" as="geometry" />
        </mxCell>
        <mxCell id="Mm4doNWPpXtPCiGbEJdF-9" value="&lt;font color=&quot;#000000&quot;&gt;团队接单&lt;/font&gt;" style="whiteSpace=wrap;html=1;fontColor=#FF8000;" vertex="1" parent="L1u2lZ3T-3ERHcfXlvra-2">
          <mxGeometry x="120" y="170" width="120" height="40" as="geometry" />
        </mxCell>
        <mxCell id="Mm4doNWPpXtPCiGbEJdF-17" value="&lt;font color=&quot;#000000&quot;&gt;团队完成接单&lt;/font&gt;" style="whiteSpace=wrap;html=1;fontColor=#FF8000;" vertex="1" parent="L1u2lZ3T-3ERHcfXlvra-2">
          <mxGeometry x="120" y="320" width="120" height="40" as="geometry" />
        </mxCell>
        <mxCell id="L1u2lZ3T-3ERHcfXlvra-3" value="文明实践站/点/所" style="swimlane;" parent="1" vertex="1">
          <mxGeometry x="440" y="100" width="380" height="620" as="geometry">
            <mxRectangle x="440" y="100" width="120" height="23" as="alternateBounds" />
          </mxGeometry>
        </mxCell>
        <mxCell id="Mm4doNWPpXtPCiGbEJdF-8" value="" style="endArrow=classic;html=1;fontColor=#000000;exitX=1;exitY=1;exitDx=0;exitDy=0;" edge="1" parent="L1u2lZ3T-3ERHcfXlvra-3" source="Mm4doNWPpXtPCiGbEJdF-10">
          <mxGeometry width="50" height="50" relative="1" as="geometry">
            <mxPoint x="190" y="160" as="sourcePoint" />
            <mxPoint x="500" y="189.5" as="targetPoint" />
            <Array as="points">
              <mxPoint x="220" y="190" />
            </Array>
          </mxGeometry>
        </mxCell>
        <mxCell id="Mm4doNWPpXtPCiGbEJdF-10" value="站点审核" style="rhombus;whiteSpace=wrap;html=1;fontColor=#000000;" vertex="1" parent="L1u2lZ3T-3ERHcfXlvra-3">
          <mxGeometry x="130" y="120" width="120" height="40" as="geometry" />
        </mxCell>
        <mxCell id="Mm4doNWPpXtPCiGbEJdF-16" value="审核未通过" style="whiteSpace=wrap;html=1;fontColor=#000000;" vertex="1" parent="L1u2lZ3T-3ERHcfXlvra-3">
          <mxGeometry x="100" y="220" width="120" height="40" as="geometry" />
        </mxCell>
        <mxCell id="Mm4doNWPpXtPCiGbEJdF-4" value="" style="endArrow=classic;html=1;fontColor=#000000;exitX=0.5;exitY=1;exitDx=0;exitDy=0;entryX=0;entryY=0.5;entryDx=0;entryDy=0;" edge="1" parent="1" source="Mm4doNWPpXtPCiGbEJdF-1">
          <mxGeometry width="50" height="50" relative="1" as="geometry">
            <mxPoint x="700" y="420" as="sourcePoint" />
            <mxPoint x="570" y="240" as="targetPoint" />
            <Array as="points">
              <mxPoint x="190" y="240" />
            </Array>
          </mxGeometry>
        </mxCell>
        <mxCell id="Mm4doNWPpXtPCiGbEJdF-5" value="提交" style="edgeLabel;html=1;align=center;verticalAlign=middle;resizable=0;points=[];fontColor=#000000;" vertex="1" connectable="0" parent="Mm4doNWPpXtPCiGbEJdF-4">
          <mxGeometry x="-0.1389" y="-2" relative="1" as="geometry">
            <mxPoint as="offset" />
          </mxGeometry>
        </mxCell>
        <mxCell id="Mm4doNWPpXtPCiGbEJdF-12" value="" style="endArrow=classic;html=1;fontColor=#000000;exitX=0;exitY=1;exitDx=0;exitDy=0;" edge="1" parent="1" source="Mm4doNWPpXtPCiGbEJdF-10">
          <mxGeometry width="50" height="50" relative="1" as="geometry">
            <mxPoint x="700" y="380" as="sourcePoint" />
            <mxPoint x="600" y="320" as="targetPoint" />
          </mxGeometry>
        </mxCell>
        <mxCell id="Mm4doNWPpXtPCiGbEJdF-20" value="" style="endArrow=classic;html=1;fontColor=#000000;exitX=0.5;exitY=1;exitDx=0;exitDy=0;entryX=1;entryY=0.5;entryDx=0;entryDy=0;" edge="1" parent="1" source="Mm4doNWPpXtPCiGbEJdF-17" target="Mm4doNWPpXtPCiGbEJdF-19">
          <mxGeometry width="50" height="50" relative="1" as="geometry">
            <mxPoint x="700" y="380" as="sourcePoint" />
            <mxPoint x="750" y="330" as="targetPoint" />
            <Array as="points">
              <mxPoint x="1000" y="520" />
            </Array>
          </mxGeometry>
        </mxCell>
      </root>
    </mxGraphModel>
  </diagram>
</mxfile>
